# xmcd
#
# Track frame offsets:
#	150
#	19454
#	35087
#	52403
#	69503
#	84437
#	101612
#	119580
#	138365
#	158061
#	171490
#	185031
#	201303
#	223791
#	239463
#
# Disc length: 3411 seconds
#
# Revision: 2
# Processed by: cddbd v1.5.2PL0 Copyright (c) Steve Scherf et al.
# Submitted via: audiograbber 1.83.01
#
DISCID=ed0d510f
DTITLE=Martina McBride - Eleven
DYEAR=2011
DGENRE=Country
TTITLE0=One Night
TTITLE1=Always Be This Way
TTITLE2=I'm Gonna Love You Through It
TTITLE3=Marry Me
TTITLE4=Broken Umbrella
TTITLE5=You Can Get Your Lovin' Right Here
TTITLE6=Whatcha Gonna Do
TTITLE7=Teenage Daughters
TTITLE8=Summer Of Love
TTITLE9=When You Love A Sinner
TTITLE10=Long Distance Lullaby
TTITLE11=You're In My House Now
TTITLE12=Closing Time
TTITLE13=Ask The Boy
TTITLE14=I Give It To You
EXTD=
EXTT0=
EXTT1=
EXTT2=
EXTT3=
EXTT4=
EXTT5=
EXTT6=
EXTT7=
EXTT8=
EXTT9=
EXTT10=
EXTT11=
EXTT12=
EXTT13=
EXTT14=
PLAYORDER=
